<?xml version="1.0" standalone="no"?>
<!DOCTYPE svg PUBLIC "-//W3C//DTD SVG 20010904//EN"
 "http://www.w3.org/TR/2001/REC-SVG-20010904/DTD/svg10.dtd">
<svg version="1.0" xmlns="http://www.w3.org/2000/svg"
 width="700.000000pt" height="700.000000pt" viewBox="0 0 700.000000 700.000000"
 preserveAspectRatio="xMidYMid meet">
<metadata>
Created by potrace 1.11, written by Peter Selinger 2001-2013
</metadata>
<g transform="translate(0.000000,700.000000) scale(0.100000,-0.100000)"
fill="#000000" stroke="none">
<path d="M3240 6874 c-19 -2 -78 -9 -130 -14 -641 -72 -1270 -341 -1775 -761
-591 -491 -1003 -1185 -1154 -1945 -47 -236 -55 -336 -55 -654 0 -318 8 -418
55 -654 218 -1095 965 -2019 1985 -2454 288 -123 572 -201 905 -249 177 -25
681 -25 858 0 509 73 952 232 1366 490 729 455 1275 1202 1484 2032 75 301 95
474 95 835 0 318 -8 418 -55 654 -218 1095 -965 2019 -1985 2454 -286 122
-575 202 -899 248 -104 14 -609 28 -695 18z m296 -998 c19 -14 19 -51 22
-2370 2 -2347 2 -2356 -18 -2376 -24 -24 -49 -25 -76 -6 -19 14 -19 51 -22
2370 -2 2347 -2 2356 18 2376 24 24 49 25 76 6z m-1127 -124 c19 -9 48 -34 64
-54 26 -32 30 -46 30 -97 0 -44 -5 -66 -23 -92 -12 -19 -309 -321 -659 -671
l-636 -638 641 -642 c353 -354 647 -654 654 -668 48 -93 17 -200 -71 -245 -37
-20 -112 -19 -152 1 -44 22 -1454 1430 -1478 1476 -10 21 -19 50 -19 66 0 87
-26 59 734 820 396 398 737 732 756 742 44 24 115 25 159 2z m2334 -1398 c44
-22 1454 -1430 1478 -1476 10 -21 19 -50 19 -66 0 -87 26 -59 -734 -820 -404
-406 -737 -732 -758 -743 -76 -39 -165 -18 -221 53 -26 32 -30 46 -30 97 0 44
5 66 23 92 12 19 309 321 659 671 l636 638 -641 642 c-353 354 -647 654 -654
668 -47 92 -21 189 64 241 38 23 115 25 159 3z"/>
</g>
</svg>
